name analog
datacolumns 19
datarows 28
range 0.0 0.0135
endheader
time	ground_force_vx	ground_force_vy	ground_force_vz	ground_force_px	ground_force_py	ground_force_pz	l_ground_force_vx	l_ground_force_vy	l_ground_force_vz	l_ground_force_px	l_ground_force_py	l_ground_force_pz	ground_torque_x	ground_torque_y	ground_torque_z	l_ground_torque_x	l_ground_torque_y	l_ground_torque_z
0.0	-0.0	-0.0	-0.0	7.315261840820312	63.225868225097656	-408.757568359375	-11.22643756866455	-59.96276473999024	-418.6328125	-0.0	-0.0	-0.0	-0.0	-0.0	-0.0	103695.421875	6302.68701171875	-5737.62841796875
0.0005	-0.0	-0.0	-0.0	7.51014518737793	64.01985931396484	-405.4505615234375	-11.806346893310549	-59.882102966308594	-419.33111572265625	-0.0	-0.0	-0.0	-0.0	-0.0	-0.0	103745.1640625	6381.28662109375	-5915.99169921875
0.001	-0.0	-0.0	-0.0	6.999217987060547	64.11723327636719	-406.671630859375	-12.153377532958984	-59.97826766967773	-418.697509765625	-0.0	-0.0	-0.0	-0.0	-0.0	-0.0	103498.28125	6346.03125	-5927.02197265625
0.0015	-0.0	-0.0	-0.0	7.14525318145752	64.0113296508789	-405.5461120605469	-12.040425300598145	-60.20329666137695	-420.3785400390625	-0.0	-0.0	-0.0	-0.0	-0.0	-0.0	103782.125	6167.83154296875	-5789.45751953125
0.002	-0.0	-0.0	-0.0	6.845158576965332	64.22195434570312	-402.4684753417969	-11.661494255065918	-60.32371520996094	-419.5213317871094	-0.0	-0.0	-0.0	-0.0	-0.0	-0.0	103704.0703125	6357.7412109375	-5667.91796875
0.0025	-0.0	-0.0	-0.0	6.001099109649658	64.17388916015625	-401.6947021484375	-11.048821449279783	-60.77347946166992	-420.6005859375	-0.0	-0.0	-0.0	-0.0	-0.0	-0.0	103879.4375	6344.39208984375	-5694.4482421875
0.003	-0.0	-0.0	-0.0	5.019718647003174	63.76955032348633	-401.5656127929688	-10.322784423828123	-60.56474304199219	-420.7897338867188	-0.0	-0.0	-0.0	-0.0	-0.0	-0.0	103970.25	6241.6474609375	-5567.12841796875
0.0035	-0.0	-0.0	-0.0	4.038325309753418	63.21728515625	-401.2473754882813	-9.870864868164062	-60.96582794189453	-420.5671997070313	-0.0	-0.0	-0.0	-0.0	-0.0	-0.0	103818.28125	6314.49609375	-5321.54345703125
0.004	-0.0	-0.0	-0.0	3.5625319480896	62.81317901611328	-399.552734375	-9.693366050720217	-60.75001907348633	-420.7882080078125	-0.0	-0.0	-0.0	-0.0	-0.0	-0.0	103776.0390625	6307.681640625	-5097.72412109375
0.0045000000000000005	-0.0	-0.0	-0.0	2.9382264614105225	61.62181854248047	-401.21240234375	-9.104779243469238	-61.15089797973633	-421.0430908203125	-0.0	-0.0	-0.0	-0.0	-0.0	-0.0	104117.0546875	6229.494140625	-4999.82666015625
0.005	-0.0	-0.0	-0.0	2.774648427963257	60.85243225097656	-400.7508850097656	-8.652487754821777	-61.2219352722168	-421.1704406738281	-0.0	-0.0	-0.0	-0.0	-0.0	-0.0	104361.015625	6070.06005859375	-4991.49609375
0.0055	-0.0	-0.0	-0.0	2.587104797363281	60.42118453979492	-401.97552490234375	-8.040172576904297	-61.16578674316406	-421.6819152832031	-0.0	-0.0	-0.0	-0.0	-0.0	-0.0	104549.765625	5987.7548828125	-4861.46826171875
0.006	-0.0	-0.0	-0.0	1.784210205078125	60.341285705566406	-401.6392822265625	-8.016500473022461	-60.918418884277344	-423.4859619140625	-0.0	-0.0	-0.0	-0.0	-0.0	-0.0	104788.171875	5974.041015625	-4773.35888671875
0.006500000000000001	-0.0	-0.0	-0.0	1.7513333559036257	60.20048141479492	-398.9631652832031	-7.830122947692871	-60.57076644897461	-423.8346862792969	-0.0	-0.0	-0.0	-0.0	-0.0	-0.0	105053.0859375	6110.44140625	-4793.85595703125
0.007	-0.0	-0.0	-0.0	1.9158731698989868	60.3551139831543	-403.7942810058594	-7.862652778625488	-60.26785659790039	-424.7891845703125	-0.0	-0.0	-0.0	-0.0	-0.0	-0.0	105617.6171875	5928.36865234375	-4745.33935546875
0.0075	-0.0	-0.0	-0.0	1.8500730991363523	60.233001708984375	-402.67962646484375	-7.419083118438721	-60.235389709472656	-426.884033203125	-0.0	-0.0	-0.0	-0.0	-0.0	-0.0	105683.25	5984.162109375	-4673.0458984375
0.008	-0.0	-0.0	-0.0	1.2954870462417605	59.83944320678711	-400.65966796875	-7.227508068084717	-60.03546524047852	-427.7662963867188	-0.0	-0.0	-0.0	-0.0	-0.0	-0.0	106033.9453125	5627.23193359375	-4710.408203125
0.0085	-0.0	-0.0	-0.0	1.6057891845703125	60.25571060180664	-400.5060424804688	-7.330295085906982	-59.92401123046875	-428.3172912597656	-0.0	-0.0	-0.0	-0.0	-0.0	-0.0	106549.2734375	5572.69580078125	-4683.9677734375
0.009000000000000001	-0.0	-0.0	-0.0	1.423981547355652	60.27189636230469	-400.1394653320313	-6.896173000335693	-59.97042846679688	-429.8600158691406	-0.0	-0.0	-0.0	-0.0	-0.0	-0.0	106764.96875	5661.42236328125	-4803.828125
0.0095	-0.0	-0.0	-0.0	1.7811342477798462	60.39737319946289	-399.3673706054688	-7.208764553070068	-60.02613067626953	-432.158447265625	-0.0	-0.0	-0.0	-0.0	-0.0	-0.0	106985.03125	5782.54736328125	-4911.740234375
0.01	-0.0	-0.0	-0.0	1.8605411052703855	60.384464263916016	-397.1963806152344	-7.783435344696045	-60.5099983215332	-433.12994384765625	-0.0	-0.0	-0.0	-0.0	-0.0	-0.0	107335.3203125	5971.02978515625	-5037.3662109375
0.0105	-0.0	-0.0	-0.0	2.197126626968384	60.44060516357422	-396.8834533691406	-8.062912940979004	-60.57895278930664	-431.6282958984375	-0.0	-0.0	-0.0	-0.0	-0.0	-0.0	107237.65625	6368.71484375	-5224.48291015625
0.011	-0.0	-0.0	-0.0	2.14105224609375	60.308143615722656	-397.5990905761719	-8.591816902160645	-60.95503616333008	-432.6376953125	-0.0	-0.0	-0.0	-0.0	-0.0	-0.0	106936.421875	6361.2294921875	-5379.79638671875
0.0115	-0.0	-0.0	-0.0	1.3257737159729004	60.37248992919922	-395.7342529296875	-9.127230644226074	-60.951904296875	-432.2104187011719	-0.0	-0.0	-0.0	-0.0	-0.0	-0.0	107043.5859375	6687.06787109375	-5543.810546875
0.012	-0.0	-0.0	-0.0	1.3049113750457764	60.386680603027344	-398.4769287109375	-9.137210845947266	-61.42905426025391	-431.3214721679688	-0.0	-0.0	-0.0	-0.0	-0.0	-0.0	106716.765625	6897.43212890625	-5506.57275390625
0.0125	-0.0	-0.0	-0.0	1.1491442918777466	60.419830322265625	-394.1488037109375	-9.481893539428713	-61.58045196533203	-431.4216918945313	-0.0	-0.0	-0.0	-0.0	-0.0	-0.0	106400.71875	7249.056640625	-5483.1376953125
0.013000000000000001	-0.0	-0.0	-0.0	0.7921857237815857	60.51954650878906	-392.46771240234375	-9.170206069946287	-62.0449104309082	-432.3391418457031	-0.0	-0.0	-0.0	-0.0	-0.0	-0.0	106262.9453125	7027.1484375	-5628.78466796875
0.0135	-0.0	-0.0	-0.0	0.3460166454315185	60.95438003540039	-393.3995971679688	-9.225921630859377	-62.3673095703125	-432.3388366699219	-0.0	-0.0	-0.0	-0.0	-0.0	-0.0	106205.6328125	7431.2470703125	-5606.8134765625
